<?xml version="1.0" standalone="no"?>
<!DOCTYPE svg PUBLIC "-//W3C//DTD SVG 20010904//EN"
 "http://www.w3.org/TR/2001/REC-SVG-20010904/DTD/svg10.dtd">
<svg version="1.0" xmlns="http://www.w3.org/2000/svg"
 width="686.000000pt" height="980.000000pt" viewBox="0 0 686.000000 980.000000"
 preserveAspectRatio="xMidYMid meet">

<g transform="translate(0.000000,980.000000) scale(0.100000,-0.100000)"
fill="#000000" stroke="none">
<path d="M667 8548 c-31 -52 -62 -168 -78 -286 -42 -317 77 -767 288 -1091 75
-115 151 -207 266 -321 53 -52 94 -96 92 -98 -7 -7 -204 117 -270 169 -84 65
-208 197 -255 270 -51 80 -80 155 -95 254 l-12 80 -13 -45 c-8 -25 -14 -85
-13 -135 1 -105 29 -197 89 -298 46 -76 209 -240 326 -327 128 -96 347 -224
463 -272 54 -22 165 -40 165 -26 0 5 -11 36 -25 71 -14 34 -28 82 -31 107 l-5
45 17 -35 c9 -19 32 -67 51 -107 42 -89 115 -171 187 -209 34 -18 52 -32 46
-38 -6 -6 -53 12 -122 47 -155 76 -202 95 -438 171 -346 112 -484 191 -694
395 -128 126 -135 129 -100 43 44 -107 222 -309 367 -416 212 -156 633 -317
791 -302 57 6 60 5 100 -32 23 -21 65 -49 94 -62 29 -13 52 -27 52 -32 0 -10
-2 -10 -80 7 -36 7 -66 12 -67 11 -2 -1 1 -17 6 -34 13 -44 -2 -40 -36 10 -15
22 -39 49 -53 59 -15 11 -110 37 -230 64 -560 124 -762 213 -1019 451 -80 74
-89 68 -42 -31 55 -117 170 -239 316 -337 232 -156 477 -237 852 -285 79 -9
139 -20 135 -24 -15 -14 -202 -49 -316 -60 -278 -25 -550 47 -770 206 -43 31
-81 54 -84 51 -17 -18 152 -195 273 -286 191 -144 386 -216 610 -227 138 -6
243 8 399 57 54 16 103 30 109 30 18 0 -81 -70 -159 -112 -125 -67 -209 -89
-359 -94 -102 -4 -149 -1 -217 14 -49 10 -88 16 -88 12 0 -3 28 -24 63 -47
271 -183 588 -187 890 -10 l68 40 99 -29 c55 -16 100 -32 100 -36 0 -16 -96
-7 -139 12 -24 11 -47 20 -52 20 -5 0 -57 -37 -116 -82 -132 -100 -180 -122
-330 -154 -169 -36 -170 -37 -93 -62 102 -33 192 -44 274 -33 86 12 127 26
234 80 45 22 84 41 87 41 15 0 -30 -63 -75 -103 -47 -43 -138 -87 -178 -87 -9
0 -23 -4 -31 -9 -9 -6 9 -13 56 -21 112 -20 243 10 314 72 14 13 49 53 78 91
47 59 57 67 87 67 19 0 34 -1 34 -3 0 -2 -21 -18 -48 -35 -80 -51 -150 -157
-186 -282 -27 -91 -19 -267 14 -303 4 -5 14 31 23 79 20 110 51 171 129 259
100 112 179 191 174 175 -68 -209 -78 -257 -83 -392 -6 -151 4 -204 55 -281
l27 -41 6 155 c5 131 10 166 33 232 26 79 72 175 99 212 15 19 15 18 21 -15 3
-19 8 -66 11 -105 16 -173 56 -304 112 -366 20 -22 39 -39 43 -39 4 0 -8 57
-26 126 -56 211 -62 359 -20 447 10 20 19 37 20 37 0 0 1 -53 1 -118 0 -112 1
-120 32 -182 41 -84 79 -113 153 -117 47 -3 52 -2 36 9 -51 35 -66 58 -96 148
-37 109 -45 232 -19 284 21 43 39 45 39 4 0 -18 4 -48 10 -67 10 -35 58 -116
65 -109 3 2 -2 26 -10 53 -16 52 -20 125 -7 125 5 0 19 -11 32 -25 27 -29 45
-33 35 -7 -37 86 -37 92 -6 128 65 74 69 211 9 301 -34 49 -93 73 -216 89 -59
7 -127 20 -152 29 -105 37 -202 125 -248 223 -24 50 -27 70 -27 157 0 94 2
106 40 195 37 87 40 103 40 185 0 104 -13 138 -82 215 -57 63 -134 111 -383
238 -237 121 -295 158 -396 254 -144 137 -203 254 -213 423 -6 96 -7 98 -22
75 -60 -94 -73 -285 -27 -398 14 -34 41 -88 59 -118 40 -66 167 -221 256 -314
35 -35 63 -66 63 -67 0 -14 -32 9 -103 75 -45 42 -139 129 -207 192 -352 324
-499 482 -626 671 -176 264 -229 452 -206 731 7 77 11 143 8 145 -2 3 -16 -15
-29 -39z m668 -1637 c-6 -5 -37 16 -103 68 -49 39 -142 146 -142 164 0 5 56
-45 124 -110 69 -65 123 -119 121 -122z m184 -135 c57 -43 157 -144 149 -151
-7 -7 -131 96 -177 147 -41 47 -33 48 28 4z m347 -812 c90 -33 100 -44 41 -44
-26 0 -47 -4 -47 -9 0 -22 81 -95 140 -126 52 -28 60 -35 39 -35 -75 0 -153
50 -221 144 -23 32 -39 96 -24 96 2 0 35 -12 72 -26z m404 -634 c0 -16 -7 -20
-32 -20 l-33 0 25 20 c32 25 40 25 40 0z m340 -40 c0 -6 12 -15 28 -21 26 -10
26 -11 8 -25 -24 -17 -46 -18 -46 -1 0 6 -3 22 -6 35 -4 13 -2 22 5 22 6 0 11
-5 11 -10z m118 -61 c14 -61 15 -69 3 -69 -11 0 -42 100 -35 112 11 18 21 5
32 -43z"/>
<path d="M6170 8567 c0 -8 5 -62 11 -121 25 -251 -27 -441 -187 -687 -173
-266 -314 -423 -684 -763 -96 -88 -186 -170 -199 -183 -13 -13 -28 -23 -33
-23 -5 0 41 57 102 128 184 211 237 305 259 464 15 112 -10 236 -63 303 -14
18 -15 14 -9 -60 11 -158 -44 -283 -188 -426 -108 -107 -198 -167 -449 -299
-306 -160 -367 -207 -418 -318 -20 -45 -23 -64 -20 -130 3 -63 11 -91 41 -155
62 -130 72 -217 37 -330 -52 -168 -182 -260 -405 -287 -208 -25 -271 -87 -264
-258 4 -68 8 -86 36 -130 32 -51 32 -52 18 -99 -21 -69 -19 -72 19 -28 19 22
38 36 42 33 6 -7 -6 -99 -22 -168 l-6 -25 26 28 c30 33 60 128 52 163 -9 34
11 30 33 -7 30 -50 33 -89 11 -193 -25 -124 -54 -190 -98 -226 -20 -16 -33
-32 -30 -36 17 -17 93 10 134 48 68 62 97 132 103 247 l6 96 13 -47 c33 -125
25 -262 -24 -431 -14 -49 -24 -91 -21 -93 8 -8 66 82 97 150 32 71 55 174 65
294 9 101 14 98 79 -31 66 -132 88 -228 84 -372 -2 -63 0 -115 3 -115 3 0 13
17 23 38 82 169 84 324 7 549 -28 85 -34 110 -22 103 9 -4 57 -49 106 -98 126
-125 180 -220 192 -339 3 -29 9 -50 13 -48 17 10 32 129 28 212 -6 106 -30
166 -107 266 -29 38 -50 71 -47 74 3 3 34 -24 68 -59 82 -84 144 -110 273
-111 50 -1 104 2 120 7 29 8 28 9 -29 22 -32 8 -74 24 -93 35 -61 38 -219 176
-211 185 3 3 64 -25 135 -61 109 -56 143 -69 224 -83 89 -15 101 -15 181 1 94
18 182 52 174 66 -3 4 -47 11 -98 14 -110 6 -192 32 -279 88 -63 41 -169 135
-169 151 0 4 36 -10 80 -32 172 -87 361 -118 519 -86 131 27 310 105 356 156
17 19 17 20 0 20 -10 0 -54 -7 -98 -16 -108 -22 -283 -14 -382 16 -113 36
-319 149 -302 166 3 3 41 -6 85 -20 141 -44 245 -59 372 -53 241 12 436 81
626 224 96 71 298 283 271 283 -3 0 -35 -21 -73 -46 -304 -204 -612 -257 -991
-173 -51 11 -93 24 -93 28 0 4 77 18 171 30 278 37 472 92 659 186 214 108
399 280 470 438 41 90 24 88 -80 -8 -146 -134 -328 -239 -525 -303 -50 -16
-187 -53 -305 -82 -380 -92 -367 -88 -400 -129 -17 -20 -39 -47 -50 -61 l-21
-25 6 42 7 43 -34 -6 c-18 -3 -50 -10 -72 -16 -21 -5 -40 -7 -42 -5 -2 2 41
32 97 67 96 60 103 63 159 61 126 -4 420 95 623 212 182 104 316 218 420 358
48 64 117 191 117 216 0 4 -39 -31 -87 -78 -232 -226 -384 -314 -763 -439
-151 -49 -261 -93 -368 -146 -85 -42 -156 -73 -160 -70 -7 7 -10 5 64 49 86
51 123 97 185 226 30 61 57 111 62 111 13 0 -4 -71 -34 -142 -16 -36 -29 -69
-29 -72 0 -18 144 16 213 51 56 28 254 153 417 264 193 130 305 260 378 437
33 80 36 95 36 192 1 87 -2 110 -19 138 -10 17 -22 32 -25 32 -3 0 -6 -37 -6
-83 -3 -184 -122 -352 -389 -553 -156 -117 -176 -130 -202 -138 -17 -6 -23 -3
-23 8 0 9 4 16 9 16 16 0 120 100 199 190 210 240 355 549 418 895 23 124 26
157 21 300 -5 169 -25 279 -68 370 -21 44 -39 59 -39 32z m-425 -1473 c-44
-67 -277 -265 -263 -224 5 15 271 259 277 254 2 -2 -4 -15 -14 -30z m-415
-363 c0 -11 -130 -131 -142 -131 -17 0 13 39 69 89 56 50 73 60 73 42z m-246
-777 l19 -26 -89 -84 c-73 -68 -95 -83 -121 -84 -45 0 -41 11 12 39 45 24 115
92 115 111 0 6 -21 10 -47 10 -55 0 -49 10 22 38 65 26 67 26 89 -4z m-304
-434 c17 -11 18 -10 -45 -34 -54 -20 -165 -33 -165 -19 0 5 42 21 93 35 109
32 99 30 117 18z m-494 -252 c-15 -35 -16 -35 -64 -30 l-49 4 -9 -38 c-13 -52
-39 -61 -30 -9 15 80 20 85 74 78 45 -5 49 -3 67 23 23 36 30 19 11 -28z m224
23 c2 -1 -1 -6 -7 -12 -13 -13 -76 -2 -68 12 5 7 25 7 75 0z"/>
<path d="M3361 8481 c-65 -81 -72 -93 -60 -109 43 -55 133 -152 139 -150 4 2
38 40 75 85 l67 82 -45 58 c-25 32 -58 73 -74 91 l-28 34 -74 -91z"/>
<path d="M3346 8101 l-85 -99 19 -25 c11 -13 24 -44 29 -68 14 -59 14 -1586 1
-1737 -11 -124 -34 -231 -56 -259 -13 -17 -15 -16 -39 10 l-26 29 -48 -31
c-57 -37 -94 -39 -156 -9 -24 12 -47 19 -50 16 -14 -13 26 -78 62 -102 73 -47
108 -50 245 -20 72 16 89 -9 149 -219 18 -64 38 -116 44 -114 5 2 25 55 43
118 68 233 67 232 187 206 93 -21 154 -10 209 35 34 28 63 75 52 85 -2 2 -21
-5 -42 -16 -21 -12 -49 -21 -62 -21 -32 0 -85 26 -113 56 l-23 24 -33 -32
c-20 -20 -36 -28 -42 -22 -17 17 -41 158 -51 294 -5 74 -10 491 -10 925 0 821
-1 796 40 861 12 20 8 29 -64 112 -42 50 -81 94 -85 97 -5 3 -48 -40 -95 -94z"/>
<path d="M3175 5751 l-30 -7 64 -47 c78 -58 121 -64 121 -17 0 45 -39 80 -87
79 -21 -1 -51 -4 -68 -8z"/>
<path d="M3566 5735 c-16 -16 -32 -82 -23 -91 13 -13 80 20 124 61 l48 44 -67
1 c-47 0 -71 -5 -82 -15z"/>
<path d="M3530 5428 c-47 -100 -91 -178 -100 -178 -3 0 -33 56 -65 125 -33 68
-63 125 -66 125 -23 1 -38 -209 -49 -655 -24 -986 -5 -2084 45 -2682 22 -260
73 -692 95 -806 30 -152 30 -154 40 -137 41 74 97 455 140 960 42 494 53 754
54 1225 1 439 -5 575 -24 575 -13 0 -65 -114 -95 -210 -50 -162 -56 -236 -65
-924 -5 -351 -12 -641 -15 -644 -3 -3 -4 349 -2 783 3 779 3 791 25 875 29
112 34 124 105 268 58 117 61 128 65 210 2 51 -1 106 -8 132 l-12 45 -35 -40
c-51 -59 -99 -165 -138 -304 -19 -68 -38 -127 -41 -130 -11 -10 5 214 21 291
28 135 71 227 157 330 22 26 44 62 49 80 11 41 -15 756 -28 769 -6 6 -27 -27
-53 -83z"/>
<path d="M3735 4565 c58 -137 68 -172 69 -240 1 -77 -10 -104 -68 -174 -23
-28 -36 -53 -36 -72 0 -16 3 -29 8 -29 4 0 30 19 57 43 97 83 89 84 83 -19 -5
-77 -11 -104 -48 -190 -58 -134 -71 -174 -59 -174 23 0 99 93 132 161 66 136
70 294 11 472 -26 77 -101 203 -144 242 l-22 20 17 -40z"/>
<path d="M3075 4516 c-139 -196 -172 -453 -82 -650 23 -50 140 -187 150 -176
3 3 -15 55 -40 115 -25 61 -53 135 -63 165 -19 59 -34 190 -22 190 4 0 37 -25
74 -55 36 -30 69 -55 72 -55 10 0 7 50 -5 73 -7 12 -27 39 -45 59 -64 71 -65
136 -5 311 16 48 26 87 21 87 -5 0 -29 -29 -55 -64z"/>
</g>
</svg>
